{
  "accessors": [
    {
      "bufferView": 1,
      "componentType": 5126,
      "count": 1176,
      "max": [
        1.0911153554916382,
        -0.31681764125823975,
        1.4932959079742432
      ],
      "min": [
        -1.0911153554916382,
        -4.2565340995788574,
        -1.2817720174789429
      ],
      "type": "VEC3"
    },
    {
      "bufferView": 1,
      "byteOffset": 14112,
      "componentType": 5126,
      "count": 1176,
      "max": [
        0.99921262264251709,
        0.98655205965042114,
        0.97772365808486938
      ],
      "min": [
        -0.99921262264251709,
        -0.99574762582778931,
        -0.9980083703994751
      ],
      "type": "VEC3"
    },
    {
      "bufferView": 0,
      "componentType": 5125,
      "count": 1176,
      "max": [
        1175
      ],
      "min": [
        0
      ],
      "type": "SCALAR"
    }
  ],
  "asset": {
    "generator": "Sketchfab (OSG glTF plugin)",
    "version": "2.0"
  },
  "bufferViews": [
    {
      "buffer": 0,
      "byteLength": 4704,
      "byteOffset": 0,
      "name": "ScalarBufferView",
      "target": 34963
    },
    {
      "buffer": 0,
      "byteLength": 28224,
      "byteOffset": 4704,
      "byteStride": 12,
      "name": "Vec4BufferView",
      "target": 34962
    }
  ],
  "buffers": [
    {
      "byteLength": 32928,
      "uri": "head.bin"
    }
  ],
  "extensionsRequired": [
    "KHR_materials_pbrSpecularGlossiness"
  ],
  "extensionsUsed": [
    "KHR_materials_pbrSpecularGlossiness"
  ],
  "materials": [
    {
      "doubleSided": true,
      "emissiveFactor": [
        0,
        0,
        0
      ],
      "extensions": {
        "KHR_materials_pbrSpecularGlossiness": {
          "diffuseFactor": [
            1,
            1,
            1,
            1
          ],
          "glossinessFactor": 0,
          "specularFactor": [
            0.27610518290000002,
            0.27610518290000002,
            0.27610518290000002
          ]
        }
      },
      "name": "Scene - Root"
    }
  ],
  "meshes": [
    {
      "name": "Plane",
      "primitives": [
        {
          "attributes": {
            "NORMAL": 1,
            "POSITION": 0
          },
          "indices": 2,
          "material": 0,
          "mode": 4
        }
      ]
    }
  ],
  "nodes": [
    {
      "children": [
        1
      ],
      "name": "RootNode (gltf orientation matrix)",
      "rotation": [
        -0.70710678118654746,
        -0,
        -0,
        0.70710678118654757
      ]
    },
    {
      "children": [
        2
      ],
      "name": "RootNode (model correction matrix)"
    },
    {
      "children": [
        3
      ],
      "matrix": [
        1,
        0,
        0,
        0,
        0,
        0,
        1,
        0,
        0,
        -1,
        0,
        0,
        0,
        0,
        0,
        1
      ],
      "name": "231234edcd804be6af70486b100e6c7a.fbx"
    },
    {
      "children": [
        4
      ],
      "name": "RootNode"
    },
    {
      "children": [
        5
      ],
      "matrix": [
        100,
        0,
        0,
        0,
        0,
        -99.999999999998892,
        -1.5099579909783709e-05,
        0,
        0,
        1.5099579909783709e-05,
        -99.999999999998892,
        0,
        0,
        0,
        0,
        1
      ],
      "name": "Plane"
    },
    {
      "mesh": 0,
      "name": "Plane"
    }
  ],
  "scene": 0,
  "scenes": [
    {
      "name": "OSG_Scene",
      "nodes": [
        0
      ]
    }
  ]
}

